<?xml version="1.0" encoding="utf-8"?>
<!-- Generator: Adobe Illustrator 22.1.0, SVG Export Plug-In . SVG Version: 6.00 Build 0)  -->
<svg version="1.1" id="Layer_1" xmlns="http://www.w3.org/2000/svg" xmlns:xlink="http://www.w3.org/1999/xlink" x="0px" y="0px"
	 viewBox="0 0 20 15" style="enable-background:new 0 0 20 15;" xml:space="preserve">
<style type="text/css">
	.st0{fill:#FFFFFF;}
</style>
<g>
	<path class="st0" d="M1.5,0h17C19.3,0,20,0.7,20,1.5v0C20,2.3,19.3,3,18.5,3h-17C0.7,3,0,2.3,0,1.5v0C0,0.7,0.7,0,1.5,0z"/>
</g>
<g>
	<path class="st0" d="M1.5,12h17c0.8,0,1.5,0.7,1.5,1.5v0c0,0.8-0.7,1.5-1.5,1.5h-17C0.7,15,0,14.3,0,13.5v0C0,12.7,0.7,12,1.5,12z"
		/>
</g>
<g>
	<path class="st0" d="M1.5,6h17C19.3,6,20,6.7,20,7.5v0C20,8.3,19.3,9,18.5,9h-17C0.7,9,0,8.3,0,7.5v0C0,6.7,0.7,6,1.5,6z"/>
</g>
</svg>
